# xmcd
#
# Track frame offsets: 
#        150
#        12616
#        21866
#        42715
#        53455
#        69332
#        79871
#        91746
#        103309
#        113974
#        126400
#        140332
#        153490
#        168004
#        180268
#        194921
#        208101
#        216999
#        229318
#        239112
#        260430
#        273525
#        289877
#
# Disc length: 4055 seconds
#
# Revision: 0
# Processed by: cddbd v1.5.2PL0 Copyright (c) Steve Scherf et al.
# Submitted via: ExactAudioCopy v1.1
#
DISCID=610fd517
DTITLE=Vaarious Artists - All-Time Country Favourites - Greatest Hits 
DTITLE=Disc 2
DYEAR=2010
DGENRE=Country
TTITLE0=Dolly Parton - 9 to 5
TTITLE1=Charley Pride - Kiss an angel good morning
TTITLE2=Brenda Lee - Big four poster bed
TTITLE3=Willie Nelson - Blue eyes cryin' in the rain
TTITLE4=Kris Kristofferson   - Why me
TTITLE5=Connie Smith - Ain't had no lovin'
TTITLE6=Johnny Horton - When it's springtime in Alaska ( It's forty be
TTITLE6=low )
TTITLE7=Louvin Brothers  - When I stop dreaming
TTITLE8=Ferlin Husky  - Just for you
TTITLE9=Lefty Frizzell  - I love you a thousand ways
TTITLE10=Tennessee Ernie Ford - Mule train
TTITLE11=Kitty Wells and Red Foley - One by one
TTITLE12=Red Foley - Midnight
TTITLE13=Jack Greene - All the time
TTITLE14=Porter Waggoner - The cold hard facts of life
TTITLE15=Claude King - Tiger woman
TTITLE16=Faron Young - Alone with you
TTITLE17=Eddy Arnold - I'll hold you in my heart
TTITLE18=Elvis Presley - Heartbreak hotel
TTITLE19=John Denver - Back home again
TTITLE20=Waylon Jennings - Are you sure Hank done it this way ?
TTITLE21=Charlie Daniels Band - The Devil went down to Georgia
TTITLE22=Bobby Bare - Marie Laveau
EXTD=
EXTT0=
EXTT1=
EXTT2=
EXTT3=
EXTT4=
EXTT5=
EXTT6=
EXTT7=
EXTT8=
EXTT9=
EXTT10=
EXTT11=
EXTT12=
EXTT13=
EXTT14=
EXTT15=
EXTT16=
EXTT17=
EXTT18=
EXTT19=
EXTT20=
EXTT21=
EXTT22=
PLAYORDER=
